<mxfile host="65bd71144e">
    <diagram id="IG4XwpxVnRoCBZ3MxxC2" name="Página-1">
        <mxGraphModel dx="606" dy="567" grid="1" gridSize="10" guides="1" tooltips="1" connect="1" arrows="1" fold="1" page="1" pageScale="1" pageWidth="827" pageHeight="1169" math="0" shadow="0">
            <root>
                <mxCell id="0"/>
                <mxCell id="1" parent="0"/>
                <mxCell id="6" value="Produto" style="swimlane;fontStyle=1;align=center;verticalAlign=top;childLayout=stackLayout;horizontal=1;startSize=26;horizontalStack=0;resizeParent=1;resizeParentMax=0;resizeLast=0;collapsible=1;marginBottom=0;" vertex="1" parent="1">
                    <mxGeometry x="30" y="10" width="280" height="320" as="geometry"/>
                </mxCell>
                <mxCell id="7" value="# codigo, qtdeEstoque: int&#10;# descricao: String&#10;# precoUnitario: float" style="text;strokeColor=none;fillColor=none;align=left;verticalAlign=top;spacingLeft=4;spacingRight=4;overflow=hidden;rotatable=0;points=[[0,0.5],[1,0.5]];portConstraint=eastwest;" vertex="1" parent="6">
                    <mxGeometry y="26" width="280" height="114" as="geometry"/>
                </mxCell>
                <mxCell id="8" value="" style="line;strokeWidth=1;fillColor=none;align=left;verticalAlign=middle;spacingTop=-1;spacingLeft=3;spacingRight=3;rotatable=0;labelPosition=right;points=[];portConstraint=eastwest;" vertex="1" parent="6">
                    <mxGeometry y="140" width="280" height="8" as="geometry"/>
                </mxCell>
                <mxCell id="9" value="+ getDescricao(): String&#10;+ setDescricao(): void&#10;+ getPrecoUnitario: float&#10;+ setPrecoUnitario: void&#10;+ getCodigo: int &#10;+ getQtdeEstoque: int&#10;&#10;+ insereEstoque(int qtde): boolean&#10;+ retiraEstoque(int qtde): void&#10;+ toString(): String&#10;" style="text;strokeColor=none;fillColor=none;align=left;verticalAlign=top;spacingLeft=4;spacingRight=4;overflow=hidden;rotatable=0;points=[[0,0.5],[1,0.5]];portConstraint=eastwest;" vertex="1" parent="6">
                    <mxGeometry y="148" width="280" height="172" as="geometry"/>
                </mxCell>
                <mxCell id="14" value="ProdutoNaoPerecivel" style="swimlane;fontStyle=1;align=center;verticalAlign=top;childLayout=stackLayout;horizontal=1;startSize=26;horizontalStack=0;resizeParent=1;resizeParentMax=0;resizeLast=0;collapsible=1;marginBottom=0;" vertex="1" parent="1">
                    <mxGeometry x="10" y="480" width="160" height="86" as="geometry"/>
                </mxCell>
                <mxCell id="15" value="# AnosGarantia: int" style="text;strokeColor=none;fillColor=none;align=left;verticalAlign=top;spacingLeft=4;spacingRight=4;overflow=hidden;rotatable=0;points=[[0,0.5],[1,0.5]];portConstraint=eastwest;" vertex="1" parent="14">
                    <mxGeometry y="26" width="160" height="26" as="geometry"/>
                </mxCell>
                <mxCell id="16" value="" style="line;strokeWidth=1;fillColor=none;align=left;verticalAlign=middle;spacingTop=-1;spacingLeft=3;spacingRight=3;rotatable=0;labelPosition=right;points=[];portConstraint=eastwest;" vertex="1" parent="14">
                    <mxGeometry y="52" width="160" height="8" as="geometry"/>
                </mxCell>
                <mxCell id="17" value="+ getAnosGarantia(): int" style="text;strokeColor=none;fillColor=none;align=left;verticalAlign=top;spacingLeft=4;spacingRight=4;overflow=hidden;rotatable=0;points=[[0,0.5],[1,0.5]];portConstraint=eastwest;" vertex="1" parent="14">
                    <mxGeometry y="60" width="160" height="26" as="geometry"/>
                </mxCell>
                <mxCell id="18" value="Extends" style="endArrow=block;endSize=16;endFill=0;html=1;exitX=0.325;exitY=-0.047;exitDx=0;exitDy=0;exitPerimeter=0;entryX=0.196;entryY=1.017;entryDx=0;entryDy=0;entryPerimeter=0;" edge="1" parent="1" source="14" target="9">
                    <mxGeometry width="160" relative="1" as="geometry">
                        <mxPoint x="70" y="420" as="sourcePoint"/>
                        <mxPoint x="230" y="420" as="targetPoint"/>
                    </mxGeometry>
                </mxCell>
                <mxCell id="19" value="Produto Perecivel" style="swimlane;fontStyle=1;align=center;verticalAlign=top;childLayout=stackLayout;horizontal=1;startSize=26;horizontalStack=0;resizeParent=1;resizeParentMax=0;resizeLast=0;collapsible=1;marginBottom=0;" vertex="1" parent="1">
                    <mxGeometry x="190" y="480" width="310" height="140" as="geometry"/>
                </mxCell>
                <mxCell id="20" value="# dataValidade" style="text;strokeColor=none;fillColor=none;align=left;verticalAlign=top;spacingLeft=4;spacingRight=4;overflow=hidden;rotatable=0;points=[[0,0.5],[1,0.5]];portConstraint=eastwest;" vertex="1" parent="19">
                    <mxGeometry y="26" width="310" height="26" as="geometry"/>
                </mxCell>
                <mxCell id="21" value="" style="line;strokeWidth=1;fillColor=none;align=left;verticalAlign=middle;spacingTop=-1;spacingLeft=3;spacingRight=3;rotatable=0;labelPosition=right;points=[];portConstraint=eastwest;" vertex="1" parent="19">
                    <mxGeometry y="52" width="310" height="8" as="geometry"/>
                </mxCell>
                <mxCell id="22" value="+ getDataValidade(): LocalDate&#10;+ setDataValidade(LocalDate data): void&#10;+ retiraEstoque(LocalDate dataRetirada, int qtde): void&#10;+ insereEstoque(int qtde): boolean" style="text;strokeColor=none;fillColor=none;align=left;verticalAlign=top;spacingLeft=4;spacingRight=4;overflow=hidden;rotatable=0;points=[[0,0.5],[1,0.5]];portConstraint=eastwest;" vertex="1" parent="19">
                    <mxGeometry y="60" width="310" height="80" as="geometry"/>
                </mxCell>
                <mxCell id="23" value="Extends" style="endArrow=block;endSize=16;endFill=0;html=1;entryX=0.482;entryY=1.023;entryDx=0;entryDy=0;entryPerimeter=0;exitX=0.25;exitY=0;exitDx=0;exitDy=0;" edge="1" parent="1" source="19" target="9">
                    <mxGeometry width="160" relative="1" as="geometry">
                        <mxPoint x="240" y="590" as="sourcePoint"/>
                        <mxPoint x="400" y="590" as="targetPoint"/>
                    </mxGeometry>
                </mxCell>
                <mxCell id="24" value="ProdutoPerecivelEspecial" style="swimlane;fontStyle=1;align=center;verticalAlign=top;childLayout=stackLayout;horizontal=1;startSize=26;horizontalStack=0;resizeParent=1;resizeParentMax=0;resizeLast=0;collapsible=1;marginBottom=0;" vertex="1" parent="1">
                    <mxGeometry x="210" y="740" width="160" height="60" as="geometry"/>
                </mxCell>
                <mxCell id="26" value="" style="line;strokeWidth=1;fillColor=none;align=left;verticalAlign=middle;spacingTop=-1;spacingLeft=3;spacingRight=3;rotatable=0;labelPosition=right;points=[];portConstraint=eastwest;" vertex="1" parent="24">
                    <mxGeometry y="26" width="160" height="8" as="geometry"/>
                </mxCell>
                <mxCell id="27" value="+ notaControle(): void" style="text;strokeColor=none;fillColor=none;align=left;verticalAlign=top;spacingLeft=4;spacingRight=4;overflow=hidden;rotatable=0;points=[[0,0.5],[1,0.5]];portConstraint=eastwest;" vertex="1" parent="24">
                    <mxGeometry y="34" width="160" height="26" as="geometry"/>
                </mxCell>
                <mxCell id="28" value="Extends" style="endArrow=block;endSize=16;endFill=0;html=1;exitX=0.25;exitY=0;exitDx=0;exitDy=0;entryX=0.194;entryY=1;entryDx=0;entryDy=0;entryPerimeter=0;" edge="1" parent="1" source="24" target="22">
                    <mxGeometry width="160" relative="1" as="geometry">
                        <mxPoint x="240" y="690" as="sourcePoint"/>
                        <mxPoint x="400" y="690" as="targetPoint"/>
                    </mxGeometry>
                </mxCell>
            </root>
        </mxGraphModel>
    </diagram>
</mxfile>